<svg xmlns="http://www.w3.org/2000/svg" viewBox="0 0 320 320" role="img" aria-labelledby="title desc">
  <title id="title">Trail runner in the mountains</title>
  <desc id="desc">A stylized trail runner moving across a mountain path.</desc>
  <defs>
    <clipPath id="frame">
      <circle cx="160" cy="160" r="156"/>
    </clipPath>
  </defs>
  <g clip-path="url(#frame)">
    <rect width="320" height="320" fill="#edf4f2"/>
    <circle cx="245" cy="64" r="32" fill="#f4b55d"/>
    <path d="M-20 196 72 104l58 62 52-79 77 102 46-57 40 64v124H-20z" fill="#c8ddd7"/>
    <path d="M-15 223 78 142l57 58 62-86 91 109 51-45v142H-15z" fill="#8eb7ae"/>
    <path d="M-20 255c58-18 106-17 148 2 46 21 95 18 212-13v76H-20z" fill="#315f59"/>
    <path d="M-20 273c72-26 132-23 183 7 40 24 97 19 177-16v56H-20z" fill="#f5f7f8"/>
    <path d="M20 274c66-16 115-12 151 11 35 22 74 22 128 1" fill="none" stroke="#d85f3b" stroke-width="7" stroke-linecap="round"/>

    <g stroke="#17212b" stroke-linecap="round" stroke-linejoin="round">
      <path d="M166 80c3-17 18-27 34-23 12 3 20 13 21 24" fill="#f1bd95" stroke-width="7"/>
      <path d="M169 72c10-17 37-18 53-2l-3 8-48-1z" fill="#17212b" stroke-width="5"/>
      <path d="M215 75l24 6-22 4" fill="#d85f3b" stroke-width="5"/>
      <circle cx="204" cy="82" r="2.8" fill="#17212b" stroke="none"/>

      <path d="M166 105c19-13 44-8 55 12l-23 63c-28-2-48-15-58-39z" fill="#d85f3b" stroke-width="7"/>
      <path d="M159 112c-18 2-31 13-44 31" fill="none" stroke-width="10"/>
      <path d="M115 143 82 132" fill="none" stroke-width="10"/>
      <path d="m82 132-15-18" fill="none" stroke-width="9"/>
      <path d="M215 118c18 6 31 18 43 37" fill="none" stroke-width="10"/>
      <path d="m258 155 28-12" fill="none" stroke-width="10"/>
      <path d="m286 143 12 5" fill="none" stroke-width="8"/>

      <path d="M191 177c-8 34-27 60-58 80" fill="none" stroke-width="12"/>
      <path d="m133 257-42 22" fill="none" stroke-width="12"/>
      <path d="M202 178c28 17 47 37 60 64" fill="none" stroke-width="12"/>
      <path d="m262 242 39 20" fill="none" stroke-width="12"/>

      <path d="m91 279-35 2c-8 0-10-9-3-13l22-13z" fill="#0d6f68" stroke-width="6"/>
      <path d="m300 261 19 16c5 5 2 13-5 13h-28l-5-15z" fill="#0d6f68" stroke-width="6"/>

      <path d="M153 113c-15 7-23 23-20 39" fill="#0d6f68" stroke-width="7"/>
      <path d="M142 104c13-9 27-12 40-8" fill="none" stroke="#0d6f68" stroke-width="7"/>
      <path d="M147 108c-9 13-12 29-9 47" fill="none" stroke="#f5f7f8" stroke-width="4"/>
      <path d="M181 177c9 8 19 11 31 10" fill="none" stroke="#f5f7f8" stroke-width="5"/>
    </g>

    <path d="M35 229c18-10 33-12 47-4" fill="none" stroke="#f5f7f8" stroke-width="6" stroke-linecap="round"/>
    <path d="M52 212c10-7 19-7 28-2" fill="none" stroke="#f5f7f8" stroke-width="5" stroke-linecap="round"/>
  </g>
  <circle cx="160" cy="160" r="155" fill="none" stroke="#17212b" stroke-width="5"/>
</svg>
